<svg width="1851" height="571" viewBox="0 0 1851 571" fill="none" xmlns="http://www.w3.org/2000/svg">
<path fill-rule="evenodd" clip-rule="evenodd" d="M1851 454H0V67.4769C205.05 -40.3382 320.741 -13.0355 498.206 107.34C701.896 238.123 822.665 245.319 1048.53 107.34C1280.16 -5.17169 1392.34 52.3153 1598.74 158.084C1601.51 159.502 1604.3 160.93 1607.1 162.365C1721.51 219.994 1768.85 202.159 1850.62 162.365L1851 171.367V454Z" fill="#292929"/>
<path fill-rule="evenodd" clip-rule="evenodd" d="M1851 143.39C1748.13 111.233 1650.35 115.561 1506.53 185.576C1280.66 323.86 1159.9 316.648 956.206 185.576C759.51 51.8628 638.703 32.7381 388 185.576V533H1851V143.39Z" fill="#E6BB30"/>
<path fill-rule="evenodd" clip-rule="evenodd" d="M1851 308.591C1802.75 322.939 1755.79 318.998 1677.1 279.365C1674.3 277.93 1671.51 276.502 1668.74 275.084C1462.34 169.315 1350.16 111.828 1118.53 224.34C892.665 362.319 771.896 355.123 568.206 224.34C371.51 90.9202 250.703 71.8376 0 224.34V571H1851V308.591Z" fill="#7879ED"/>
</svg>
